<?xml version="1.0" standalone="no"?>
<!DOCTYPE svg PUBLIC "-//W3C//DTD SVG 20010904//EN"
 "http://www.w3.org/TR/2001/REC-SVG-20010904/DTD/svg10.dtd">
<svg version="1.0" xmlns="http://www.w3.org/2000/svg"
 width="980.000000pt" height="980.000000pt" viewBox="0 0 980.000000 980.000000"
 preserveAspectRatio="xMidYMid meet">

<g transform="translate(0.000000,980.000000) scale(0.100000,-0.100000)"
fill="#000000" stroke="none">
<path d="M4824 7961 c-49 -12 -134 -63 -161 -96 -15 -16 -38 -55 -52 -85 l-26
-55 -3 -1665 c-2 -1230 0 -1679 8 -1720 33 -154 176 -260 334 -248 116 10 207
71 258 176 l33 67 0 1695 0 1695 -22 48 c-37 80 -78 123 -150 159 -69 34 -155
45 -219 29z"/>
<path d="M3765 6943 c-65 -24 -236 -119 -350 -196 -140 -93 -250 -182 -374
-302 -343 -330 -585 -730 -716 -1178 -82 -281 -109 -498 -102 -822 4 -189 9
-257 32 -385 47 -268 118 -486 240 -735 373 -760 1104 -1310 1935 -1455 1107
-193 2210 316 2782 1283 172 291 284 609 345 979 25 152 25 611 0 763 -82 490
-237 859 -525 1245 -90 120 -342 381 -447 462 -178 138 -455 309 -558 344
-109 37 -248 2 -328 -83 -66 -68 -84 -116 -84 -218 0 -75 4 -98 24 -139 34
-69 92 -121 186 -168 89 -45 273 -163 350 -225 260 -208 482 -501 611 -809
224 -536 211 -1140 -35 -1659 -106 -222 -223 -391 -388 -559 -312 -317 -675
-508 -1123 -592 -114 -21 -439 -30 -566 -15 -467 55 -884 255 -1215 584 -113
111 -163 171 -255 307 -286 423 -401 929 -328 1440 92 647 512 1232 1093 1524
142 72 210 163 219 291 11 179 -119 323 -298 332 -54 3 -89 -1 -125 -14z"/>
</g>
</svg>
