<?xml version="1.0" standalone="no"?>
<!DOCTYPE svg PUBLIC "-//W3C//DTD SVG 20010904//EN"
 "http://www.w3.org/TR/2001/REC-SVG-20010904/DTD/svg10.dtd">
<svg version="1.0" xmlns="http://www.w3.org/2000/svg"
 width="512.000000pt" height="512.000000pt" viewBox="0 0 512.000000 512.000000"
 preserveAspectRatio="xMidYMid meet">

<g transform="translate(0.000000,512.000000) scale(0.100000,-0.100000)"
fill="#000000" stroke="none">
<path d="M560 3974 l-35 -15 25 -22 c14 -12 420 -348 903 -747 606 -501 897
-736 943 -760 63 -33 73 -35 158 -35 70 1 104 6 147 23 45 18 237 172 970 778
503 415 915 759 917 764 10 28 -115 30 -2033 30 -1737 -1 -1964 -3 -1995 -16z"/>
<path d="M384 3808 c-18 -41 -19 -85 -19 -1248 l0 -1207 24 -51 c14 -29 27
-52 30 -51 9 1 1306 1501 1306 1510 0 9 -1305 1089 -1316 1089 -3 0 -15 -19
-25 -42z"/>
<path d="M4050 3309 c-360 -298 -655 -544 -655 -548 0 -9 1298 -1509 1306
-1510 3 -1 16 22 30 51 l24 51 0 1207 c0 1163 -1 1207 -19 1248 -10 23 -22 42
-25 42 -3 0 -301 -244 -661 -541z"/>
<path d="M1193 1907 l-651 -752 26 -12 c39 -18 3945 -18 3984 0 l26 12 -651
752 c-359 413 -655 751 -659 750 -4 -1 -91 -71 -193 -155 -102 -84 -208 -169
-236 -188 -149 -100 -382 -104 -544 -9 -22 13 -130 98 -240 189 -110 91 -202
165 -205 165 -3 0 -298 -339 -657 -752z"/>
</g>
</svg>
